<svg xmlns="http://www.w3.org/2000/svg" width="212.574" height="45.82" viewBox="0 0 212.574 45.82"><defs><style>.a{fill:#fff;}</style></defs><path class="a" d="M2.378-21.344c1.044,4.756,6.554,8.236,10.208,9.918,1.8.754,4.756,2.088,4.64,3.364C16.762-4.408,2.668,1.392,2.2-.29,1.972-1.16.87-1.218.7.348a5.352,5.352,0,0,0,1.45,3.6,3.269,3.269,0,0,0,2.03.522C8.99,4.466,19.082-.116,20.764-4a5.742,5.742,0,0,0,.522-2.436c0-3.016-1.972-6.786-6.38-9.28-4-2.378-8.352-4.64-8.062-6.612.522-5.336,10.9-10.962,16.7-11.89.812.58.348,1.392.58,1.624a1.185,1.185,0,0,0,1.856,0,3,3,0,0,0,.638-1.856,5.705,5.705,0,0,0-2.9-4.64,5.619,5.619,0,0,0-2.088-.348c-6.554,0-19.488,7.018-19.488,16.066A12.818,12.818,0,0,0,2.378-21.344Zm29.58,1.624c-5.8.7-9.338,10.556-9.338,15.834,0,2.436,1.914,4.988,4.524,4.988,2.552,0,7.018-6.264,7.482-7.424a8.4,8.4,0,0,0,1.914,4.7,5.747,5.747,0,0,0,3.944,1.45,5.567,5.567,0,0,0,4.176-1.74,30.306,30.306,0,0,0,4.7-9.86c.58-2.61-.7-3.19-1.8-3.016-.464.058-.812.7-.986,1.16C44.95-8.816,41.7-3.48,39.846-3.074a4.587,4.587,0,0,1-.29-1.914c0-3.364,1.624-8.816,2.03-10.556.29-1.276-1.972-2.494-3.19-2.494-.406,0-1.276,0-1.508.464A9.466,9.466,0,0,0,31.958-19.72ZM33-15.95c.87-.754,1.972,1.044,2.32,2.03A31.8,31.8,0,0,1,27.144-2.726C28.014-7.888,31.2-14.21,33-15.95ZM57.246.174a7.708,7.708,0,0,0,4.64-1.914c1.16-1.044,3.422-5.336,4.64-8.874a6.1,6.1,0,0,0,.348-1.914c0-1.392-.7-2.262-1.856-2.262-.464,0-.812.7-.986,1.16-2.32,6.612-5.162,10.266-6.96,11.02A6.237,6.237,0,0,1,56.666-5.1a36.381,36.381,0,0,1,1.856-9.628c.406-1.218-2.03-3.306-3.248-3.306a6.394,6.394,0,0,1-2.842-.7c-.754-.522.058-1.856-.058-2.552A2.369,2.369,0,0,0,50-22.736c-.754.058-.986.232-1.044.464-.87,3.074-1.682,6.728-2.61,9.28a18.208,18.208,0,0,0-.812,2.726,2.36,2.36,0,0,0,1.682.87,2.289,2.289,0,0,0,1.74-1.044,37.858,37.858,0,0,0,2.03-5.916,5.229,5.229,0,0,0,2.2.986A29.969,29.969,0,0,0,51.91-7.134a11.518,11.518,0,0,0,.406,3.422A5.159,5.159,0,0,0,57.246.174ZM70.47-19.72c-5.8.7-9.338,10.556-9.338,15.834,0,2.436,1.914,4.988,4.524,4.988,2.552,0,7.018-6.264,7.482-7.424a8.4,8.4,0,0,0,1.914,4.7A5.747,5.747,0,0,0,79-.174a5.567,5.567,0,0,0,4.176-1.74,30.306,30.306,0,0,0,4.7-9.86c.58-2.61-.7-3.19-1.8-3.016-.464.058-.812.7-.986,1.16C83.462-8.816,80.214-3.48,78.358-3.074a4.587,4.587,0,0,1-.29-1.914c0-3.364,1.624-8.816,2.03-10.556.29-1.276-1.972-2.494-3.19-2.494-.406,0-1.276,0-1.508.464A9.466,9.466,0,0,0,70.47-19.72Zm1.044,3.77c.87-.754,1.972,1.044,2.32,2.03A31.8,31.8,0,0,1,65.656-2.726C66.526-7.888,69.716-14.21,71.514-15.95Zm19.72-13.862a12.1,12.1,0,0,1,.464,3.538,12.993,12.993,0,0,1-.58,3.944,7.725,7.725,0,0,0-.7,2.146c0,.638,1.044.928,1.972.928a2.437,2.437,0,0,0,1.276-.29c1.74-1.45,2.552-5.22,2.552-7.366a3.852,3.852,0,0,0-.928-2.552,4.224,4.224,0,0,0-2.726-.87C91.93-30.334,91.408-30.218,91.234-29.812ZM96.86-11.6c.058,3.654,4.756,9.28,4.408,9.4-1.856.7-4.466-.638-6.032-2.494-.406-.464-1.276-.464-1.566.7-.348,1.74,1.392,4.582,4.872,5.278,3.944.812,7.424-3.132,6.844-4.93-.812-2.262-2.32-3.19-3.016-6.38a6.5,6.5,0,0,1-.116-2.088,6.957,6.957,0,0,1,4.176-5.742c.7,0,1.566-.116,1.16-.928a5.525,5.525,0,0,0-3.828-2.494C100.282-21.286,96.744-16.008,96.86-11.6Zm29-4.234c-.986.58-1.566,3.538-1.1,4.756.348.87.928.638,1.218.464.348-.522,3.538-1.044,7.83-1.508-1.16,4.524-2.32,8.758-3.074,11.542a17.271,17.271,0,0,0-.87,4.176c0,1.914,2.32,2.784,3.828,2.784,1.218,0,1.276-.174,1.276-1.276,0-3.016,1.45-7.308,2.088-9.918.174-.754,1.334-5.568,2.03-7.772,4.292-.348,8.99-.58,12.876-.7C150.916-8.468,149.7-2.088,149.292,1.16c-.232,1.508,2.552,2.61,3.712,2.668.58,0,1.624-.116,1.624-.87a6.66,6.66,0,0,1-.058-1.1,123.081,123.081,0,0,1,2.61-15.2l2.726.174c.58-.232,0-2.842-1.218-3.422l-.7-.174c1.276-5.568,2.726-11.252,3.944-16.3-.464-1.566-2.552-2.494-4-2.552-.348,0-1.218,0-1.218.522a9.63,9.63,0,0,1,.174,1.276c-.174,1.392-1.044,4.872-1.566,7.134-.754,3.074-1.392,5.742-2.378,9.338-2.03-.116-4.466-.174-6.96-.174-1.8,0-3.6,0-5.394.058.928-3.364,3.016-13.05,3.016-15.486,0-2.494-2.668-2.842-4.35-2.842-.232,0-1.16-.174-.87,1.16a6.078,6.078,0,0,1-.058,1.45c-.174,3.016-1.566,9.4-3.19,15.95C130.674-16.994,127.02-16.53,125.86-15.834Zm42.4-3.886c-5.8.7-9.338,10.556-9.338,15.834,0,2.436,1.914,4.988,4.524,4.988,2.552,0,7.018-6.264,7.482-7.424a8.4,8.4,0,0,0,1.914,4.7,5.747,5.747,0,0,0,3.944,1.45,5.567,5.567,0,0,0,4.176-1.74,30.306,30.306,0,0,0,4.7-9.86c.58-2.61-.7-3.19-1.8-3.016-.464.058-.812.7-.986,1.16C181.25-8.816,178-3.48,176.146-3.074a4.587,4.587,0,0,1-.29-1.914c0-3.364,1.624-8.816,2.03-10.556.29-1.276-1.972-2.494-3.19-2.494-.406,0-1.276,0-1.508.464A9.466,9.466,0,0,0,168.258-19.72Zm1.044,3.77c.87-.754,1.972,1.044,2.32,2.03a31.8,31.8,0,0,1-8.178,11.194C164.314-7.888,167.5-14.21,169.3-15.95ZM189.37-29.232c-2.436.29-4.35,2.9-4.35,5.336a4.125,4.125,0,0,0,.406,1.856,1.683,1.683,0,0,0,2.03.7,6.5,6.5,0,0,0,2.436-1.972c.986-1.218,2.146-3.77,1.45-4.988A2.308,2.308,0,0,0,189.37-29.232Zm-6.5,28.014h-.058A4.517,4.517,0,0,0,186.064.174,7.248,7.248,0,0,0,190.7-1.74a32.406,32.406,0,0,0,4.64-8.874,5.912,5.912,0,0,0,.29-1.914c0-1.392-.638-2.262-1.8-2.262-.464,0-.812.7-.986,1.16-2.494,6.67-5.22,10.266-6.96,11.02a5.057,5.057,0,0,1-.29-1.8c0-3.48,1.856-9.338,2.262-11.136.29-1.276-1.972-2.494-3.19-2.494-.406,0-1.276,0-1.508.464A32.328,32.328,0,0,0,180.9-7.25,8.611,8.611,0,0,0,182.874-1.218ZM203.638.174a7.708,7.708,0,0,0,4.64-1.914c1.16-1.044,3.422-5.336,4.64-8.874a6.1,6.1,0,0,0,.348-1.914c0-1.392-.7-2.262-1.856-2.262-.464,0-.812.7-.986,1.16-2.32,6.612-5.162,10.266-6.96,11.02a6.237,6.237,0,0,1-.406-2.494,36.381,36.381,0,0,1,1.856-9.628c.406-1.218-2.03-3.306-3.248-3.306a6.394,6.394,0,0,1-2.842-.7c-.754-.522.058-1.856-.058-2.552a2.369,2.369,0,0,0-2.378-1.45c-.754.058-.986.232-1.044.464-.87,3.074-1.682,6.728-2.61,9.28a18.209,18.209,0,0,0-.812,2.726,2.36,2.36,0,0,0,1.682.87,2.289,2.289,0,0,0,1.74-1.044,37.858,37.858,0,0,0,2.03-5.916,5.229,5.229,0,0,0,2.2.986A29.969,29.969,0,0,0,198.3-7.134a11.518,11.518,0,0,0,.406,3.422A5.159,5.159,0,0,0,203.638.174Z" transform="translate(-0.692 39.44)"/></svg>